# xmcd
#
# Track frame offsets:
#	150
#	15147
#	36655
#	62885
#	86547
#	101642
#	117485
#	135635
#	161632
#	178917
#	193247
#	211397
#	232250
#	256817
#	284100
#	299787
#	321470
#	337887
#
# Disc length: 4784 seconds
#
# Revision: 1
# Processed by: cddbd v1.5.1PL0 Copyright (c) Steve Scherf et al.
# Submitted via: audiograbber 1.81.02
#
DISCID=2512ae12
DTITLE=Various Artist - Playback-CD Premium Collection aus "In Love With Jesus" Band 1
DTITLE=Various Artist -  CD 1 - (www.gerth.de)
DYEAR=2005
DGENRE=Chorus
TTITLE0=Gott ist real
TTITLE1=Dein Reich kommt mit Macht
TTITLE2=Mach mit mir Geschichte
TTITLE3=Ruft alle Nationen
TTITLE4=Herr, dein Name sei erhöht
TTITLE5=Es gibt eine Stimme
TTITLE6=Du bist erhoben
TTITLE7=Die Menschen suchen einen Helden
TTITLE8=Du bist der Herr
TTITLE9=Über alle Welt
TTITLE10=Wir glauben an den einen Vater
TTITLE11=Ein Wort von dir
TTITLE12=Herr, öffne du mir die Augen
TTITLE13=Mit ganzem Herzen
TTITLE14=Ich liebe dich so sehr
TTITLE15=Ruft zu dem Herrn
TTITLE16=Es gibt noch mehr
TTITLE17=Ich will von deiner Liebe singen
EXTD=
EXTT0=
EXTT1=
EXTT2=
EXTT3=
EXTT4=
EXTT5=
EXTT6=
EXTT7=
EXTT8=
EXTT9=
EXTT10=
EXTT11=
EXTT12=
EXTT13=
EXTT14=
EXTT15=
EXTT16=
EXTT17=
PLAYORDER=
